<svg width="52" height="53" viewBox="0 0 52 53" fill="none" xmlns="http://www.w3.org/2000/svg">
<path d="M51.1333 43.9477H50.2667V17.081C50.2637 14.6888 48.3256 12.7506 45.9333 12.7477V11.881C45.927 6.61836 41.6626 2.354 36.4 2.34766H27.7333C22.4707 2.354 18.2063 6.61836 18.2 11.881V12.7477H6.06667C3.67445 12.7506 1.7363 14.6888 1.73333 17.081V43.9477H0.866667C0.388053 43.9477 0 44.3357 0 44.8143V48.281C0 49.7168 1.16416 50.881 2.6 50.881H49.4C50.8358 50.881 52 49.7168 52 48.281V44.8143C52 44.3357 51.6119 43.9477 51.1333 43.9477ZM19.9333 11.881C19.9384 7.57516 23.4275 4.08607 27.7333 4.08099H36.4C40.7058 4.08607 44.1949 7.57516 44.2 11.881V13.6143C44.1949 17.9201 40.7058 21.4092 36.4 21.4143C36.1702 21.4143 35.9497 21.5057 35.7872 21.6682L31.2 26.2555V22.281C31.2 21.8024 30.8119 21.4143 30.3333 21.4143H27.7333C23.4275 21.4092 19.9384 17.9201 19.9333 13.6143V11.881ZM3.46667 17.081C3.46667 15.6452 4.63083 14.481 6.06667 14.481H18.244C18.696 19.386 22.8076 23.1413 27.7333 23.1477H29.4667V28.3477C29.4667 28.698 29.6778 29.0142 30.0016 29.1483C30.3253 29.2825 30.6981 29.208 30.9461 28.9604L36.7656 23.1409C41.5484 22.9505 45.4505 19.2472 45.891 14.481H45.9333C47.3692 14.481 48.5333 15.6452 48.5333 17.081V43.9477H3.46667V17.081ZM30.3333 46.5477H21.6667V45.681H30.3333V46.5477ZM49.4 49.1477H2.6C2.12139 49.1477 1.73333 48.7596 1.73333 48.281H9.53333V46.5477H1.73333V45.681H19.9333V46.5477C19.9333 47.5049 20.7094 48.281 21.6667 48.281H30.3333C31.2906 48.281 32.0667 47.5049 32.0667 46.5477V45.681H50.2667V46.5477H42.4667V48.281H50.2667C50.2667 48.7596 49.8786 49.1477 49.4 49.1477Z" fill="#CC002D"/>
<path d="M24.2667 8.41406H39.8667V10.1474H24.2667V8.41406Z" fill="#CC002D"/>
<path d="M24.2667 11.8809H39.8667V13.6142H24.2667V11.8809Z" fill="#CC002D"/>
<path d="M24.2667 15.3477H39.8667V17.081H24.2667V15.3477Z" fill="#CC002D"/>
<path d="M21.6667 37.8808C22.1453 37.8808 22.5333 37.4927 22.5333 37.0141V24.0141C22.5333 23.5355 22.1453 23.1475 21.6667 23.1475H7.80002C7.3214 23.1475 6.93335 23.5355 6.93335 24.0141V32.6808C6.93335 33.1594 7.3214 33.5475 7.80002 33.5475H16.9745L21.0539 37.6269C21.2164 37.7894 21.4369 37.8808 21.6667 37.8808ZM20.8 34.9219L17.9461 32.068C17.7836 31.9055 17.5631 31.8141 17.3333 31.8141H8.66668V24.8808H20.8V34.9219Z" fill="#CC002D"/>
<path d="M10.4 27.481H12.1333V29.2143H10.4V27.481Z" fill="#CC002D"/>
<path d="M13.8667 27.481H15.6V29.2143H13.8667V27.481Z" fill="#CC002D"/>
<path d="M17.3333 27.481H19.0667V29.2143H17.3333V27.481Z" fill="#CC002D"/>
<path d="M26.8667 31.8145H30.3333V33.5478H26.8667V31.8145Z" fill="#CC002D"/>
<path d="M32.0667 31.8145H40.7333V33.5478H32.0667V31.8145Z" fill="#CC002D"/>
<path d="M26.8667 35.2808H40.7333V37.0141H26.8667V35.2808Z" fill="#CC002D"/>
<path d="M26.8667 38.7476H40.7333V40.4809H26.8667V38.7476Z" fill="#CC002D"/>
</svg>
