<svg width="52" height="53" viewBox="0 0 52 53" fill="none" xmlns="http://www.w3.org/2000/svg">
<g clip-path="url(#clip0)">
<path d="M29.7706 31.2573C35.4082 31.2602 39.9807 26.6924 39.9837 21.0548C39.9857 17.2158 37.8335 13.7002 34.4135 11.956V8.04297H32.5563V11.2243C30.7367 10.6968 28.8045 10.6968 26.9849 11.2243V8.04297H25.1277V11.956C20.1056 14.5172 18.1105 20.6648 20.6719 25.6871C22.416 29.107 25.9315 31.2592 29.7706 31.2573ZM29.7706 12.6858C34.3862 12.6858 38.1277 16.4274 38.1277 21.043C38.1277 25.6584 34.3862 29.4001 29.7706 29.4001C25.1551 29.4001 21.4135 25.6584 21.4135 21.043C21.419 16.4298 25.1573 12.6914 29.7706 12.6858Z" fill="#CC002D"/>
<path d="M28.64 23.2083V23.9923H31.664V25.1543H28.64V26.4143H26.358V25.1543H25V23.9923H26.358V16.6143H30.6C31.9347 16.6143 32.9754 16.8943 33.722 17.4543C34.478 18.0143 34.856 18.8356 34.856 19.9183C34.856 20.9916 34.478 21.8083 33.722 22.3683C32.9754 22.9283 31.9347 23.2083 30.6 23.2083H28.64ZM32.56 19.9323C32.56 19.4563 32.3874 19.0923 32.042 18.8403C31.706 18.5883 31.2207 18.4623 30.586 18.4623H28.64V21.4303H30.586C31.2207 21.4303 31.706 21.3043 32.042 21.0523C32.3874 20.7909 32.56 20.4176 32.56 19.9323Z" fill="#CC002D"/>
<path d="M51.6747 31.9125L50.3654 30.594C48.5458 28.7858 45.607 28.7887 43.7911 30.6005L35.1897 39.3597C34.6498 37.322 32.8071 35.9023 30.6992 35.8998H24.4972C23.4243 33.6303 21.1381 32.1837 18.6277 32.1855H13.9849C12.2363 32.1853 10.5618 32.8919 9.34202 34.1448V31.257C9.34202 30.7442 8.92625 30.3284 8.41345 30.3284H0.984876C0.472073 30.3284 0.0563049 30.7442 0.0563049 31.257V51.6855C0.0563049 52.1983 0.472073 52.6141 0.984876 52.6141H8.41345C8.92625 52.6141 9.34202 52.1983 9.34202 51.6855V49.8284L34.6642 49.846C34.9105 49.846 35.1466 49.7481 35.3207 49.574L51.6728 33.2218C52.0333 32.8601 52.0341 32.2753 51.6747 31.9125ZM7.48488 50.757H1.91345V32.1855H7.48488V50.757ZM34.2797 47.9898L9.34202 47.9712V38.6855C9.34504 36.1227 11.422 34.0457 13.9849 34.0427H18.6277C20.5934 34.0391 22.3464 35.2792 22.9976 37.1339C23.1276 37.5068 23.4792 37.7568 23.8742 37.757H30.6992C32.2377 37.757 33.4849 39.0042 33.4849 40.5427H19.5563V42.3998H34.4134V42.3915C34.6614 42.3942 34.8999 42.2972 35.0755 42.1222L45.1041 31.9079C46.1938 30.8233 47.9546 30.8212 49.0468 31.9033L49.7033 32.5653L34.2797 47.9898Z" fill="#CC002D"/>
<path d="M4.69917 34.043H2.84203V35.9001H4.69917V34.043Z" fill="#CC002D"/>
<path d="M45.5563 8.04297H43.6992V9.90011H45.5563V8.04297Z" fill="#CC002D"/>
<path d="M47.4134 9.8999H45.5563V11.757H47.4134V9.8999Z" fill="#CC002D"/>
<path d="M45.5563 11.7573H43.6992V13.6145H45.5563V11.7573Z" fill="#CC002D"/>
<path d="M43.6992 9.8999H41.842V11.757H43.6992V9.8999Z" fill="#CC002D"/>
<path d="M10.2706 18.2573H8.41344V20.1145H10.2706V18.2573Z" fill="#CC002D"/>
<path d="M12.1277 20.1143H10.2706V21.9714H12.1277V20.1143Z" fill="#CC002D"/>
<path d="M10.2706 21.9712H8.41344V23.8283H10.2706V21.9712Z" fill="#CC002D"/>
<path d="M8.41345 20.1143H6.5563V21.9714H8.41345V20.1143Z" fill="#CC002D"/>
<path d="M15.842 3.3999H13.9849V5.25705H15.842V3.3999Z" fill="#CC002D"/>
<path d="M17.6992 5.25732H15.842V7.11447H17.6992V5.25732Z" fill="#CC002D"/>
<path d="M15.842 7.11426H13.9849V8.9714H15.842V7.11426Z" fill="#CC002D"/>
<path d="M13.9849 5.25732H12.1277V7.11447H13.9849V5.25732Z" fill="#CC002D"/>
<path d="M26.9849 4.32861H25.1277V6.18576H26.9849V4.32861Z" fill="#CC002D"/>
<path d="M30.6992 4.32861H28.842V8.97147H30.6992V4.32861Z" fill="#CC002D"/>
<path d="M30.6992 0.614258H28.842V2.4714H30.6992V0.614258Z" fill="#CC002D"/>
<path d="M34.4134 4.32861H32.5563V6.18576H34.4134V4.32861Z" fill="#CC002D"/>
</g>
<defs>
<clipPath id="clip0">
<rect width="52" height="52" fill="white" transform="translate(0 0.614258)"/>
</clipPath>
</defs>
</svg>
