<svg width="52" height="53" viewBox="0 0 52 53" fill="none" xmlns="http://www.w3.org/2000/svg">
<path d="M47.125 37.9893C46.3601 37.9886 45.6198 38.2589 45.0353 38.7522C44.793 38.3497 44.4664 38.0046 44.0779 37.7405C43.6895 37.4764 43.2484 37.2996 42.785 37.2224C42.3217 37.1452 41.8471 37.1693 41.3939 37.2931C40.9408 37.417 40.5199 37.6375 40.1603 37.9397C39.7211 37.2097 39.0129 36.6813 38.1881 36.4682C37.3632 36.2552 36.4877 36.3745 35.75 36.8006V29.8643C35.75 29.0023 35.4076 28.1757 34.7981 27.5662C34.1886 26.9567 33.362 26.6143 32.5 26.6143C31.638 26.6143 30.8114 26.9567 30.2019 27.5662C29.5924 28.1757 29.25 29.0023 29.25 29.8643V31.4893H23.413C23.2475 31.0143 22.9384 30.6026 22.5284 30.3113C22.1184 30.02 21.6279 29.8635 21.125 29.8635C20.6221 29.8635 20.1316 30.02 19.7216 30.3113C19.3116 30.6026 19.0025 31.0143 18.837 31.4893H15.4375V33.1143H18.837C19.0025 33.5892 19.3116 34.0009 19.7216 34.2922C20.1316 34.5835 20.6221 34.74 21.125 34.74C21.6279 34.74 22.1184 34.5835 22.5284 34.2922C22.9384 34.0009 23.2475 33.5892 23.413 33.1143H29.25V42.2695L29.1411 42.081C28.7101 41.3344 28.0003 40.7897 27.1676 40.5665C26.335 40.3434 25.4478 40.4601 24.7012 40.8911C23.9547 41.3221 23.4099 42.032 23.1867 42.8646C22.9636 43.6973 23.0803 44.5844 23.5113 45.331L27.0132 51.3955L28.4204 50.583L24.9194 44.5185C24.811 44.3336 24.7402 44.1291 24.7112 43.9168C24.6822 43.7045 24.6954 43.4885 24.7502 43.2813C24.805 43.0741 24.9002 42.8798 25.0304 42.7096C25.1606 42.5394 25.3231 42.3965 25.5087 42.2894C25.6943 42.1822 25.8993 42.1129 26.1118 42.0852C26.3243 42.0576 26.5402 42.0723 26.747 42.1284C26.9538 42.1846 27.1475 42.2811 27.3169 42.4124C27.4862 42.5437 27.628 42.7072 27.7339 42.8935L29.3589 45.708C29.4483 45.8629 29.5863 45.9839 29.7516 46.0524C29.9168 46.1208 30.1 46.1328 30.2728 46.0865C30.4456 46.0402 30.5982 45.9382 30.7071 45.7964C30.816 45.6545 30.875 45.4806 30.875 45.3018V29.8643C30.875 29.4333 31.0462 29.02 31.351 28.7152C31.6557 28.4105 32.069 28.2393 32.5 28.2393C32.931 28.2393 33.3443 28.4105 33.649 28.7152C33.9538 29.02 34.125 29.4333 34.125 29.8643V42.8643C34.125 43.0797 34.2106 43.2864 34.363 43.4388C34.5153 43.5912 34.722 43.6768 34.9375 43.6768C35.153 43.6768 35.3597 43.5912 35.512 43.4388C35.6644 43.2864 35.75 43.0797 35.75 42.8643V39.6143C35.75 39.1833 35.9212 38.77 36.226 38.4652C36.5307 38.1605 36.944 37.9893 37.375 37.9893C37.806 37.9893 38.2193 38.1605 38.524 38.4652C38.8288 38.77 39 39.1833 39 39.6143V42.8643C39 43.0797 39.0856 43.2864 39.238 43.4388C39.3903 43.5912 39.597 43.6768 39.8125 43.6768C40.028 43.6768 40.2347 43.5912 40.387 43.4388C40.5394 43.2864 40.625 43.0797 40.625 42.8643V40.4268C40.625 39.9958 40.7962 39.5825 41.101 39.2777C41.4057 38.973 41.819 38.8018 42.25 38.8018C42.681 38.8018 43.0943 38.973 43.399 39.2777C43.7038 39.5825 43.875 39.9958 43.875 40.4268V42.8643C43.875 43.0797 43.9606 43.2864 44.113 43.4388C44.2653 43.5912 44.472 43.6768 44.6875 43.6768C44.903 43.6768 45.1097 43.5912 45.262 43.4388C45.4144 43.2864 45.5 43.0797 45.5 42.8643V41.2393C45.5 40.8083 45.6712 40.395 45.976 40.0902C46.2807 39.7855 46.694 39.6143 47.125 39.6143C47.556 39.6143 47.9693 39.7855 48.274 40.0902C48.5788 40.395 48.75 40.8083 48.75 41.2393V50.9893H50.375V41.2393C50.375 40.3773 50.0326 39.5507 49.4231 38.9412C48.8136 38.3317 47.987 37.9893 47.125 37.9893ZM21.125 33.1143C20.9643 33.1143 20.8072 33.0666 20.6736 32.9773C20.54 32.888 20.4358 32.7612 20.3743 32.6127C20.3129 32.4642 20.2968 32.3009 20.3281 32.1432C20.3595 31.9856 20.4368 31.8409 20.5505 31.7272C20.6641 31.6136 20.8089 31.5362 20.9665 31.5049C21.1241 31.4735 21.2875 31.4896 21.4359 31.5511C21.5844 31.6126 21.7113 31.7167 21.8006 31.8504C21.8898 31.984 21.9375 32.1411 21.9375 32.3018C21.9375 32.5172 21.8519 32.7239 21.6995 32.8763C21.5472 33.0287 21.3405 33.1143 21.125 33.1143Z" fill="#CC002D"/>
<path d="M8.125 46.1143V7.11426C8.125 6.2523 8.46741 5.42565 9.0769 4.81616C9.6864 4.20667 10.513 3.86426 11.375 3.86426H34.125C34.987 3.86426 35.8136 4.20667 36.4231 4.81616C37.0326 5.42565 37.375 6.2523 37.375 7.11426V34.7393H39V7.11426C38.9987 5.82172 38.4847 4.5825 37.5707 3.66854C36.6568 2.75458 35.4175 2.24055 34.125 2.23926H11.375C10.0825 2.24055 8.84324 2.75458 7.92928 3.66854C7.01532 4.5825 6.50129 5.82172 6.5 7.11426V46.1143C6.50129 47.4068 7.01532 48.646 7.92928 49.56C8.84324 50.4739 10.0825 50.988 11.375 50.9893H24.375V49.3643H11.375C10.513 49.3643 9.6864 49.0218 9.0769 48.4124C8.46741 47.8029 8.125 46.9762 8.125 46.1143Z" fill="#CC002D"/>
<path d="M21.125 44.4893H21.9375V42.8643H21.125C20.4785 42.8643 19.8585 43.1211 19.4014 43.5782C18.9443 44.0353 18.6875 44.6553 18.6875 45.3018C18.6875 45.9482 18.9443 46.5682 19.4014 47.0253C19.8585 47.4824 20.4785 47.7393 21.125 47.7393H22.75V46.1143H21.125C20.9095 46.1143 20.7028 46.0287 20.5505 45.8763C20.3981 45.7239 20.3125 45.5172 20.3125 45.3018C20.3125 45.0863 20.3981 44.8796 20.5505 44.7272C20.7028 44.5749 20.9095 44.4893 21.125 44.4893Z" fill="#CC002D"/>
<path d="M17.0625 5.48926H18.6875V7.11426H17.0625V5.48926Z" fill="#CC002D"/>
<path d="M20.3125 5.48926H25.1875V7.11426H20.3125V5.48926Z" fill="#CC002D"/>
<path d="M21.1713 24.0955C21.4304 24.2346 21.7224 24.3005 22.0162 24.2862C22.3099 24.2718 22.5941 24.1779 22.8385 24.0143L25.4385 22.2829C25.6611 22.1345 25.8435 21.9334 25.9698 21.6976C26.096 21.4617 26.162 21.1983 26.162 20.9309C26.162 20.6634 26.096 20.4 25.9698 20.1641C25.8435 19.9283 25.6611 19.7273 25.4385 19.5789L22.8385 17.8474C22.5941 17.6845 22.3101 17.591 22.0167 17.5766C21.7233 17.5623 21.4316 17.6278 21.1724 17.7661C20.9133 17.9043 20.6965 18.1103 20.545 18.3619C20.3936 18.6136 20.3132 18.9016 20.3124 19.1954V22.6582C20.3117 22.9532 20.3912 23.2428 20.5425 23.496C20.6938 23.7492 20.9111 23.9565 21.1713 24.0955ZM24.5374 20.9268L21.9374 22.6639V19.1954L24.5374 20.9268Z" fill="#CC002D"/>
<path d="M22.75 28.2393C24.1963 28.2393 25.6101 27.8104 26.8126 27.0069C28.0151 26.2034 28.9524 25.0613 29.5059 23.7251C30.0593 22.3889 30.2041 20.9186 29.922 19.5002C29.6398 18.0817 28.9434 16.7787 27.9207 15.756C26.898 14.7334 25.5951 14.0369 24.1766 13.7548C22.7581 13.4726 21.2878 13.6174 19.9516 14.1709C18.6154 14.7244 17.4734 15.6616 16.6699 16.8642C15.8664 18.0667 15.4375 19.4805 15.4375 20.9268C15.4399 22.8654 16.211 24.724 17.5819 26.0949C18.9527 27.4657 20.8113 28.2369 22.75 28.2393ZM22.75 15.2393C23.8749 15.2393 24.9745 15.5728 25.9098 16.1978C26.8451 16.8227 27.5741 17.711 28.0046 18.7502C28.435 19.7895 28.5477 20.9331 28.3282 22.0363C28.1088 23.1396 27.5671 24.153 26.7717 24.9484C25.9763 25.7438 24.9628 26.2855 23.8596 26.505C22.7563 26.7244 21.6127 26.6118 20.5735 26.1813C19.5342 25.7508 18.646 25.0219 18.021 24.0866C17.3961 23.1513 17.0625 22.0516 17.0625 20.9268C17.0642 19.4189 17.664 17.9732 18.7302 16.907C19.7965 15.8408 21.2421 15.241 22.75 15.2393Z" fill="#CC002D"/>
</svg>
