<svg width="52" height="48" viewBox="0 0 52 48" fill="none" xmlns="http://www.w3.org/2000/svg">
<path d="M42.6019 3.53581C42.6163 3.50533 42.6405 3.48112 42.653 3.44616C43.0414 2.53526 42.6179 1.48181 41.707 1.09338C40.7961 0.704951 39.7427 1.12846 39.3543 2.03936C39.3426 2.06659 39.3317 2.09416 39.3214 2.12195C39.3035 2.16588 39.2972 2.21161 39.2829 2.25554C31.4049 0.173296 23.2181 4.33206 20.2536 11.9222C20.0703 12.3821 20.2946 12.9037 20.7545 13.0869C20.7552 13.0871 20.7559 13.0875 20.7565 13.0877L34.0847 18.3863L28.4364 32.6002C26.2574 31.9321 23.9914 31.5909 21.7123 31.588C11.9999 31.588 3.32577 37.6998 0.620874 46.4528C0.474848 46.926 0.739891 47.428 1.21305 47.574C1.29856 47.6004 1.38765 47.6139 1.47708 47.6139H41.9474C42.4425 47.6144 42.8444 47.2135 42.8449 46.7182C42.845 46.6267 42.8311 46.5357 42.8036 46.4482C40.807 40.3374 36.1474 35.4612 30.1336 33.1891L35.7532 19.046L49.084 24.3439C49.5439 24.5271 50.0655 24.3029 50.2487 23.8429C50.2489 23.8423 50.2493 23.8416 50.2495 23.8409C53.3725 16.1138 50.0465 7.28295 42.6019 3.53581ZM40.6878 45.8208H2.73674C5.59315 38.4386 13.2165 33.3811 21.7123 33.3811C23.7657 33.3816 25.8084 33.6793 27.7765 34.2651L25.8095 39.2141L27.4771 39.8757L29.4728 34.8551C34.5768 36.7864 38.6423 40.7615 40.6878 45.8208ZM22.2923 11.768C22.3372 11.6711 22.382 11.5707 22.425 11.4757C22.5012 11.3215 22.5819 11.1699 22.6635 11.0184C22.798 10.7692 22.9393 10.5253 23.0876 10.2868C23.1772 10.1443 23.2669 10.0026 23.3565 9.86457C23.5188 9.6225 23.69 9.3885 23.8649 9.15809C23.9545 9.03974 24.0442 8.91781 24.1338 8.79947C24.3499 8.5305 24.5767 8.27767 24.8098 8.02933C24.8717 7.96298 24.9291 7.89216 24.9892 7.82761C25.2934 7.51437 25.6101 7.21705 25.9395 6.93554C25.9897 6.89161 26.0444 6.85305 26.0955 6.81092C26.3743 6.57961 26.6594 6.35726 26.9535 6.14836C27.0566 6.07485 27.1642 6.00761 27.27 5.93767C27.521 5.76912 27.7756 5.60505 28.0365 5.45354C28.1567 5.3845 28.2777 5.31905 28.3996 5.25271C28.6596 5.11161 28.9238 4.9787 29.1922 4.85374C29.3123 4.79726 29.4334 4.74167 29.5553 4.68968C29.844 4.56505 30.1371 4.45209 30.433 4.34719C30.5379 4.30954 30.641 4.27009 30.7468 4.23512C31.1054 4.11555 31.4689 4.01222 31.837 3.92492C31.8818 3.91416 31.9267 3.89981 31.9715 3.88995C32.8415 3.68778 33.7284 3.56775 34.6208 3.53133C34.6656 3.53133 34.7105 3.53133 34.7553 3.53133C35.1462 3.52001 35.5392 3.52449 35.9343 3.54478C36.0284 3.54478 36.1225 3.55823 36.2167 3.5654C36.5645 3.5905 36.9127 3.62816 37.2612 3.67836C37.3759 3.6954 37.4898 3.71333 37.6045 3.73305C37.7381 3.75636 37.8735 3.79043 38.0053 3.81733C33.2306 5.53714 29.3574 9.11954 27.2709 13.7457L22.2923 11.768ZM34.749 16.7178L28.9394 14.4092C30.9402 10.0367 34.7037 6.71947 39.2927 5.28319L34.749 16.7178ZM42.2263 19.689L36.4157 17.3795L40.9594 5.94485C43.3115 10.1394 43.7719 15.1352 42.2263 19.689ZM49.6049 17.9156C49.6049 18.2419 49.5932 18.5692 49.5681 18.9018C49.5565 19.0551 49.5358 19.2084 49.5188 19.3626C49.4883 19.6442 49.4534 19.9266 49.4049 20.2081C49.3771 20.3757 49.3422 20.5425 49.3081 20.7093C49.2525 20.9806 49.1885 21.2517 49.1163 21.5224C49.0714 21.6901 49.0266 21.8586 48.9737 22.0254C48.9432 22.1267 48.9047 22.2262 48.8715 22.3266L43.8929 20.3479C45.5498 15.5506 45.1898 10.2863 42.8951 5.75926C42.9937 5.82023 43.095 5.87761 43.1918 5.93857C43.3362 6.03361 43.4778 6.12954 43.6177 6.22905C43.8454 6.39043 44.066 6.55988 44.2829 6.73292C44.4085 6.83423 44.5358 6.93285 44.6568 7.03774C44.8863 7.23409 45.1051 7.4403 45.3194 7.65009C45.409 7.73974 45.5121 7.8294 45.6036 7.92443C46.2008 8.53913 46.741 9.20684 47.2174 9.91926C47.2882 10.0251 47.35 10.1362 47.4182 10.2429C47.5769 10.4948 47.7311 10.7486 47.8736 11.0095C47.948 11.1457 48.0162 11.2856 48.0852 11.4246C48.2071 11.6657 48.3237 11.9087 48.4313 12.1562C48.4967 12.3059 48.5577 12.4565 48.6178 12.6044C48.7146 12.8519 48.8043 13.102 48.8867 13.3548C48.9369 13.5082 48.988 13.6606 49.0329 13.8157C49.1109 14.0846 49.1781 14.3536 49.24 14.6226C49.2732 14.7669 49.3108 14.9095 49.3395 15.0547C49.4049 15.382 49.4534 15.7137 49.4955 16.0463C49.5071 16.136 49.5251 16.2256 49.5349 16.3153C49.5798 16.7415 49.6054 17.1702 49.612 17.6018C49.612 17.7058 49.6049 17.8107 49.6049 17.9156Z" fill="#CC002D"/>
</svg>
