<svg width="82" height="82" viewBox="0 0 82 82" fill="none" xmlns="http://www.w3.org/2000/svg">
<path d="M73.3269 3.94238H8.6731C3.89068 3.94238 0 7.83322 0 12.6155V48.0962V53.6155C0 58.3978 3.89068 62.2886 8.6731 62.2886H29.615L27.0919 74.9039H18.9231C18.0522 74.9039 17.3462 75.6099 17.3462 76.4808C17.3462 77.3518 18.0522 78.0577 18.9231 78.0577H63.0769C63.9478 78.0577 64.6538 77.3518 64.6538 76.4808C64.6538 75.6099 63.9478 74.9039 63.0769 74.9039H54.9081L52.385 62.2886H73.3269C78.1092 62.2886 82 58.3979 82 53.6155V48.0962V12.6155C82 7.83322 78.1093 3.94238 73.3269 3.94238ZM30.3081 74.9039L32.8312 62.2886H49.1688L51.6919 74.9039H30.3081ZM78.8462 53.6155C78.8462 56.6588 76.3703 59.1348 73.3269 59.1348H8.6731C5.62981 59.1348 3.1538 56.6589 3.1538 53.6155V49.6732H78.846V53.6155H78.8462ZM78.8462 46.5194H3.1538V43.3656H12.6153C13.4863 43.3656 14.1922 42.6597 14.1922 41.7887C14.1922 40.9178 13.4863 40.2118 12.6153 40.2118H3.1538V12.6155C3.1538 9.5722 5.62965 7.09618 8.6731 7.09618H73.3269C76.3702 7.09618 78.8462 9.57203 78.8462 12.6155V46.5194Z" fill="#CC002D"/>
<path d="M41 51.25C39.261 51.25 37.8462 52.6648 37.8462 54.4038C37.8462 56.1428 39.261 57.5576 41 57.5576C42.739 57.5576 44.1538 56.1428 44.1538 54.4038C44.1538 52.6648 42.739 51.25 41 51.25Z" fill="#CC002D"/>
<path d="M53.9105 34.1425L50.5653 30.7973L53.353 28.0098C53.7584 27.6045 53.9118 27.0111 53.7537 26.46C53.5957 25.909 53.1511 25.4872 52.5924 25.3581L38.0967 22.0129C37.5671 21.891 37.0116 22.0499 36.6269 22.4345C36.2426 22.819 36.0832 23.3742 36.2054 23.9042L39.5509 38.3998C39.6798 38.9583 40.1017 39.403 40.6528 39.5611C41.2041 39.719 41.7971 39.5656 42.2026 39.1604L44.9901 36.3727L48.3353 39.7179C48.6433 40.0259 49.0469 40.1798 49.4503 40.1798C49.8538 40.1798 50.2575 40.0259 50.5653 39.7179L53.9105 36.3727C54.5262 35.7569 54.5262 34.7585 53.9105 34.1425ZM49.4503 36.3727L46.1052 33.0275C45.7972 32.7195 45.3936 32.5656 44.9901 32.5656C44.5867 32.5656 44.183 32.7195 43.8751 33.0275L41.9843 34.9185L39.8462 25.6536L49.1111 27.7915L47.2202 29.6823C46.6044 30.2981 46.6044 31.2967 47.2202 31.9125L50.5653 35.2577L49.4503 36.3727Z" fill="#CC002D"/>
<path d="M34.509 18.0866L32.9321 16.5097C32.3163 15.8939 31.3178 15.8939 30.702 16.5097C30.0862 17.1255 30.0862 18.1239 30.702 18.7399L32.279 20.3168C32.587 20.6248 32.9906 20.7787 33.394 20.7787C33.7975 20.7787 34.2012 20.6248 34.509 20.3168C35.1248 19.7011 35.1248 18.7026 34.509 18.0866Z" fill="#CC002D"/>
<path d="M31.4345 22.3555H29.2045C28.3336 22.3555 27.6276 23.0614 27.6276 23.9324C27.6276 24.8033 28.3336 25.5093 29.2045 25.5093H31.4345C32.3054 25.5093 33.0114 24.8033 33.0114 23.9324C33.0114 23.0614 32.3054 22.3555 31.4345 22.3555Z" fill="#CC002D"/>
<path d="M34.509 27.5478C33.8934 26.932 32.895 26.932 32.279 27.5478L30.7021 29.1247C30.0863 29.7405 30.0863 30.7391 30.7021 31.3549C31.0101 31.6628 31.4137 31.8167 31.8171 31.8167C32.2205 31.8167 32.6243 31.6628 32.9321 31.3549L34.509 29.778C35.1248 29.1623 35.1248 28.1637 34.509 27.5478Z" fill="#CC002D"/>
<path d="M45.5476 16.5097C44.9318 15.8939 43.9334 15.8939 43.3175 16.5097L41.7406 18.0866C41.1248 18.7024 41.1248 19.701 41.7406 20.3168C42.0485 20.6248 42.4521 20.7787 42.8557 20.7787C43.2593 20.7787 43.6629 20.6248 43.9707 20.3168L45.5476 18.7399C46.1634 18.1242 46.1634 17.1257 45.5476 16.5097Z" fill="#CC002D"/>
<path d="M38.125 13.4355C37.2541 13.4355 36.5481 14.1415 36.5481 15.0124V17.2425C36.5481 18.1134 37.2541 18.8194 38.125 18.8194C38.996 18.8194 39.7019 18.1134 39.7019 17.2425V15.0124C39.7019 14.1415 38.996 13.4355 38.125 13.4355Z" fill="#CC002D"/>
<path d="M18.8915 41.4807C18.8727 41.3798 18.8411 41.2805 18.8017 41.1842C18.7623 41.0896 18.7135 40.9981 18.6566 40.9129C18.5999 40.8261 18.5336 40.7457 18.461 40.6732C18.3885 40.6006 18.3081 40.5345 18.2213 40.4776C18.1361 40.4209 18.0446 40.3719 17.9485 40.3325C17.8539 40.2931 17.7546 40.2616 17.6537 40.2427C17.4503 40.2017 17.2421 40.2017 17.0387 40.2427C16.9378 40.2616 16.8385 40.2931 16.7439 40.3325C16.6476 40.3719 16.5562 40.4208 16.4711 40.4776C16.3843 40.5343 16.3039 40.6006 16.2314 40.6732C16.1588 40.7457 16.0927 40.8261 16.0358 40.9129C15.9791 40.9981 15.9301 41.0896 15.8907 41.1842C15.8513 41.2805 15.8198 41.3798 15.8009 41.4807C15.7804 41.5816 15.7693 41.6857 15.7693 41.7882C15.7693 41.8907 15.7804 41.9948 15.8009 42.0957C15.8198 42.1966 15.8513 42.2959 15.8907 42.3905C15.9301 42.4868 15.9789 42.5782 16.0358 42.6633C16.0925 42.7501 16.1588 42.8305 16.2314 42.903C16.3039 42.9756 16.3843 43.0417 16.4711 43.0986C16.5563 43.1553 16.6478 43.2043 16.7439 43.2437C16.8385 43.2831 16.9378 43.3146 17.0387 43.3351C17.1396 43.3556 17.2437 43.3651 17.3462 43.3651C17.4487 43.3651 17.5528 43.3556 17.6537 43.3351C17.7546 43.3146 17.8539 43.2831 17.9485 43.2437C18.0448 43.2043 18.1363 43.1554 18.2213 43.0986C18.3081 43.0419 18.3885 42.9756 18.461 42.903C18.5336 42.8305 18.5997 42.7501 18.6566 42.6633C18.7133 42.5781 18.7623 42.4866 18.8017 42.3905C18.8411 42.2959 18.8727 42.1966 18.8915 42.0957C18.912 41.9948 18.9231 41.8907 18.9231 41.7882C18.9231 41.6857 18.912 41.5816 18.8915 41.4807Z" fill="#CC002D"/>
</svg>
