<svg width="82" height="82" viewBox="0 0 82 82" fill="none" xmlns="http://www.w3.org/2000/svg">
<g clip-path="url(#clip0)">
<path d="M75.1505 34.1906C75.1678 18.4107 64.3714 4.67389 49.0345 0.961718C33.6975 -2.75046 17.8144 4.52886 10.6139 18.5701C3.41329 32.6114 6.77073 49.7575 18.7353 60.046L11.4382 73.904C9.40463 74.3608 8.0379 76.2713 8.26233 78.3435C8.48675 80.4157 10.2309 81.9893 12.3151 82.0001H32.8049C35.0681 82.0001 36.9029 80.1655 36.9029 77.9022C36.8984 77.4357 36.8134 76.9737 36.6516 76.5362H45.3501C45.1883 76.9737 45.1033 77.4359 45.0988 77.9022C45.0988 80.1653 46.9336 82.0001 49.1968 82.0001H69.6866C71.7708 81.9893 73.515 80.4157 73.7394 78.3435C73.9638 76.2713 72.5971 74.3608 70.5635 73.904L63.2664 60.046C70.809 53.5733 75.1497 44.1299 75.1505 34.1906ZM56.879 7.09761C51.7719 8.84885 46.3988 9.69661 41.0009 9.60281C35.6069 9.69629 30.2383 8.84517 25.1376 7.08801C34.9359 1.33101 47.0842 1.3347 56.879 7.09761ZM9.58312 34.1906C9.58456 24.1949 14.347 14.7975 22.407 8.88567C26.994 11.0766 33.6873 12.3348 41.0009 12.3348C48.3144 12.3348 55.0268 11.0795 59.611 8.89671C71.5467 17.6719 75.7306 33.5924 69.6514 47.1019C63.5721 60.6114 48.8821 68.0386 34.3987 64.9254C19.9151 61.8124 9.57431 49.0048 9.58312 34.1906ZM41.0009 68.3403C42.1537 68.3403 43.292 68.2833 44.4158 68.1695L47.0508 73.8042H34.9509L37.5859 68.1695C38.7087 68.2833 39.847 68.3403 41.0009 68.3403ZM20.9044 61.7836C25.0159 64.7886 29.7507 66.8306 34.7582 67.7584L31.9348 73.8044H14.5772L20.9044 61.7836ZM34.1709 77.9022C34.1709 78.6566 33.5592 79.2681 32.8049 79.2681H12.3151C11.5607 79.2681 10.9492 78.6566 10.9492 77.9022C10.9492 77.1477 11.5609 76.5362 12.3151 76.5362H32.8049C33.5594 76.5362 34.1709 77.1477 34.1709 77.9022ZM69.6866 79.2681H49.1968C48.4423 79.2681 47.8308 78.6566 47.8308 77.9022C47.8308 77.1477 48.4425 76.5362 49.1968 76.5362H69.6866C70.441 76.5362 71.0525 77.1477 71.0525 77.9022C71.0525 78.6566 70.441 79.2681 69.6866 79.2681ZM67.4245 73.8042H50.0668L47.2434 67.7583C52.2509 66.8305 56.9856 64.7886 61.0972 61.7834L67.4245 73.8042Z" fill="white"/>
<path d="M41.0008 53.314C51.5627 53.314 60.1247 44.752 60.1247 34.1901C60.1247 23.6283 51.5625 15.0664 41.0008 15.0664C30.4392 15.0664 21.877 23.6284 21.877 34.1903C21.8883 44.7473 30.4436 53.3028 41.0008 53.314ZM41.0008 17.7983C50.0538 17.7983 57.3927 25.1371 57.3927 34.1901C57.3927 43.2431 50.0538 50.582 41.0008 50.582C31.9479 50.582 24.609 43.2431 24.609 34.1901C24.6188 25.1413 31.9519 17.8082 41.0008 17.7983Z" fill="white"/>
<path d="M41.0009 47.8508C48.545 47.8508 54.6607 41.7351 54.6607 34.1911C54.6607 26.647 48.545 20.5312 41.0009 20.5312C33.4568 20.5312 27.341 26.647 27.341 34.1911C27.3492 41.7316 33.4601 47.8425 41.0009 47.8508ZM45.0988 34.1909C45.0988 36.4542 43.264 38.2888 41.0009 38.2888C38.7377 38.2888 36.9029 36.454 36.9029 34.1909C36.9029 31.9277 38.7377 30.0929 41.0009 30.0929C43.264 30.0929 45.0988 31.9277 45.0988 34.1909ZM46.2381 29.8608C45.9644 29.5311 45.6607 29.2276 45.3311 28.9538C45.1827 28.6732 45.1032 28.3614 45.0988 28.0441C45.0988 26.9125 46.0162 25.9951 47.1478 25.9951C48.2794 25.9951 49.1968 26.9125 49.1968 28.0441C49.1968 29.1757 48.2794 30.0931 47.1478 30.0931C46.8304 30.0888 46.5186 30.0092 46.2381 29.8608ZM41.0009 23.2631C42.278 23.266 43.5445 23.4939 44.7423 23.9366C43.4475 24.6963 42.5867 26.0222 42.4201 27.5141C39.451 26.8759 36.4161 28.2685 34.9639 30.9359C33.5117 33.6032 33.989 36.9082 36.1365 39.0556C38.2839 41.203 41.5888 41.6804 44.2562 40.2282C46.9234 38.776 48.3162 35.7411 47.678 32.772C49.1699 32.6053 50.4958 31.7446 51.2555 30.4497C52.8851 34.9288 51.4211 39.9474 47.6389 42.848C43.8566 45.7486 38.6301 45.8608 34.727 43.1252C30.8237 40.3898 29.1456 35.4387 30.5813 30.8936C32.0167 26.3486 36.2344 23.2599 41.0009 23.2631Z" fill="white"/>
</g>
<defs>
<clipPath id="clip0">
<rect width="82" height="82" fill="white"/>
</clipPath>
</defs>
</svg>
