<svg width="92" height="92" viewBox="0 0 92 92" fill="none" xmlns="http://www.w3.org/2000/svg">
<g clip-path="url(#clip0)">
<path d="M75.9686 29.0757H69.2789V21.9484C69.2789 17.8641 67.7422 13.9733 64.9518 10.9932C64.4331 10.439 63.5634 10.4106 63.0096 10.9294C62.4556 11.4481 62.427 12.3176 62.9458 12.8714C65.2575 15.3405 66.5307 18.5641 66.5307 21.9484V29.0757H38.5692C29.7295 29.0757 22.5378 36.2675 22.5378 45.1072V50.0231H20.3855C19.5293 50.0231 18.7242 50.3566 18.1184 50.9621L10.8253 58.2553V50.9186C10.8253 49.7947 10.2235 48.7385 9.25445 48.1624C5.2413 45.7764 2.74814 41.3995 2.74814 36.74V21.9484C2.74814 14.6239 8.70694 8.66513 16.0314 8.66513H53.2475C54.9643 8.66513 56.6341 8.98731 58.2107 9.62305C58.9145 9.90641 59.7152 9.56609 59.9989 8.86243C60.2826 8.15859 59.9421 7.35791 59.2383 7.07418C57.3338 6.3062 55.3181 5.91699 53.2475 5.91699H16.0314C7.19163 5.91699 0 13.1086 0 21.9484V36.74C0 42.3639 3.00797 47.6458 7.85001 50.5246C7.99016 50.608 8.07713 50.7589 8.07713 50.9188V58.9189C8.07713 59.9228 8.67639 60.8196 9.60394 61.204C10.223 61.5015 11.4869 61.4586 12.2994 60.668L20.0616 52.9056C20.1482 52.819 20.2632 52.7714 20.3855 52.7714H22.5378V59.8987C22.5378 62.0625 22.9619 64.1622 23.7982 66.1394C24.0938 66.8382 24.9 67.1647 25.599 66.8697C26.298 66.5741 26.6248 65.7678 26.3294 65.0689C25.6373 63.4323 25.2862 61.6929 25.2862 59.8989V45.1074C25.2862 37.7828 31.245 31.824 38.5694 31.824H75.9686C83.2931 31.824 89.2519 37.7828 89.2519 45.1074V59.8989C89.2519 64.5765 86.86 68.8222 82.8535 71.2562C81.9093 71.83 81.3226 72.877 81.3226 73.9885V82.9506L72.4931 74.121C71.8876 73.5154 71.0824 73.1819 70.226 73.1819H38.5692C35.2358 73.1819 32.0483 71.9421 29.5936 69.691C29.0344 69.1783 28.1653 69.2157 27.6521 69.7749C27.1391 70.3342 27.1767 71.2034 27.736 71.7164C30.6989 74.4338 34.546 75.9303 38.569 75.9303H70.2257C70.3462 75.9303 70.4643 75.9791 70.5494 76.0645L79.8481 85.3631C80.5661 85.9149 81.268 86.3415 82.5434 85.8991C83.471 85.5148 84.0702 84.618 84.0702 83.614V73.9884C84.0702 73.8304 84.1507 73.6833 84.2801 73.6047C89.1142 70.6681 92 65.5445 92 59.8987V45.1072C92 36.2675 84.8084 29.0757 75.9686 29.0757Z" fill="#CC002D"/>
<path d="M53.3905 61.8456C52.5848 60.7071 51.117 59.9438 49.4428 59.9438C46.9044 59.9438 44.8394 61.6984 44.8394 63.8552C44.8394 66.0118 46.9045 67.7665 49.4428 67.7665C51.6702 67.7665 53.5327 66.4154 53.9558 64.6271C55.9827 63.7734 57.5783 62.0723 58.2709 59.9202C60.2776 59.4633 61.7803 57.6657 61.7803 55.5224V50.5675C61.7803 48.4984 60.3798 46.7515 58.4773 46.2217C58.0295 43.4619 56.6733 40.9296 54.5941 39.0157C52.2741 36.8802 49.259 35.7041 46.104 35.7041C39.8956 35.7041 34.7029 40.176 33.7295 46.2219C31.8277 46.752 30.4277 48.4988 30.4277 50.5673V55.5222C30.4277 58.0098 32.4516 60.0336 34.9391 60.0336C37.4267 60.0336 39.4506 58.0098 39.4506 55.5222V50.5673C39.4506 48.6276 38.2199 46.97 36.4985 46.3339C37.3894 41.7815 41.3689 38.4522 46.104 38.4522C50.7791 38.4522 54.8088 41.8397 55.706 46.3353C53.9864 46.9723 52.7575 48.6288 52.7575 50.5673V55.5222C52.7575 57.3557 53.8575 58.9363 55.432 59.6412C54.9951 60.5799 54.2766 61.3466 53.3905 61.8456ZM49.4428 65.0185C48.3494 65.0185 47.5875 64.4056 47.5875 63.8554C47.5875 63.3052 48.3494 62.6921 49.4428 62.6921C50.5362 62.6921 51.2983 63.3052 51.2983 63.8554C51.2983 64.4056 50.536 65.0185 49.4428 65.0185ZM36.7024 55.5226C36.7024 56.4948 35.9114 57.2858 34.9391 57.2858C33.9669 57.2858 33.1759 56.4948 33.1759 55.5226V50.5677C33.1759 49.5954 33.9669 48.8044 34.9391 48.8044C35.9114 48.8044 36.7024 49.5954 36.7024 50.5677V55.5226ZM55.5056 50.5677C55.5056 49.5954 56.2966 48.8044 57.2689 48.8044C58.2412 48.8044 59.0322 49.5954 59.0322 50.5677V55.5226C59.0322 56.4948 58.2412 57.2858 57.2689 57.2858C56.2966 57.2858 55.5056 56.4948 55.5056 55.5226V50.5677Z" fill="#CC002D"/>
<path d="M65.3509 43.4923H76.2958C77.0546 43.4923 77.6699 42.8772 77.6699 42.1182C77.6699 41.3592 77.0546 40.7441 76.2958 40.7441H65.3509C64.5921 40.7441 63.9768 41.3592 63.9768 42.1182C63.9768 42.8772 64.5921 43.4923 65.3509 43.4923Z" fill="#CC002D"/>
<path d="M65.3509 49.6427H73.7903C74.5491 49.6427 75.1643 49.0276 75.1643 48.2686C75.1643 47.5096 74.5491 46.8945 73.7903 46.8945H65.3509C64.5921 46.8945 63.9768 47.5096 63.9768 48.2686C63.9768 49.0276 64.5921 49.6427 65.3509 49.6427Z" fill="#CC002D"/>
<path d="M13.5183 25.9381C14.6498 25.9381 15.567 25.0209 15.567 23.8894C15.567 22.758 14.6498 21.8408 13.5183 21.8408C12.3869 21.8408 11.4697 22.758 11.4697 23.8894C11.4697 25.0209 12.3869 25.9381 13.5183 25.9381Z" fill="#CC002D"/>
<path d="M19.7229 25.9381C20.8544 25.9381 21.7715 25.0209 21.7715 23.8894C21.7715 22.758 20.8544 21.8408 19.7229 21.8408C18.5915 21.8408 17.6743 22.758 17.6743 23.8894C17.6743 25.0209 18.5915 25.9381 19.7229 25.9381Z" fill="#CC002D"/>
<path d="M25.8912 25.9381C27.0226 25.9381 27.9398 25.0209 27.9398 23.8894C27.9398 22.758 27.0226 21.8408 25.8912 21.8408C24.7598 21.8408 23.8426 22.758 23.8426 23.8894C23.8426 25.0209 24.7598 25.9381 25.8912 25.9381Z" fill="#CC002D"/>
</g>
<defs>
<clipPath id="clip0">
<rect width="92" height="92" fill="white"/>
</clipPath>
</defs>
</svg>
